{
	"asset":{
		"generator":"Khronos glTF Blender I/O v4.0.44",
		"version":"2.0"
	},
	"extensionsUsed":[
		"KHR_materials_specular",
		"KHR_materials_ior"
	],
	"scene":0,
	"scenes":[
		{
			"name":"Scene",
			"nodes":[
				0,
				1,
				2
			]
		}
	],
	"nodes":[
		{
			"mesh":0,
			"name":"Cube.001",
			"rotation":[
				0.7071068286895752,
				0,
				0,
				0.7071068286895752
			]
		},
		{
			"mesh":1,
			"name":"Cube.003_Cube.004",
			"rotation":[
				0.7071068286895752,
				0,
				0,
				0.7071068286895752
			]
		},
		{
			"mesh":2,
			"name":"Cube.013_Cube.008",
			"rotation":[
				0.7071068286895752,
				0,
				0,
				0.7071068286895752
			]
		}
	],
	"materials":[
		{
			"doubleSided":true,
			"extensions":{
				"KHR_materials_specular":{
					"specularFactor":0
				},
				"KHR_materials_ior":{
					"ior":1.4500000476837158
				}
			},
			"name":"Material.031",
			"pbrMetallicRoughness":{
				"baseColorFactor":[
					0.012286663986742496,
					0.012286663986742496,
					0.012286663986742496,
					1
				],
				"metallicFactor":0
			}
		},
		{
			"doubleSided":true,
			"extensions":{
				"KHR_materials_specular":{
					"specularFactor":0
				},
				"KHR_materials_ior":{
					"ior":1.4500000476837158
				}
			},
			"name":"Material.029",
			"pbrMetallicRoughness":{
				"baseColorFactor":[
					0.8003778457641602,
					0.09348104894161224,
					0.04667133837938309,
					1
				],
				"metallicFactor":0
			}
		},
		{
			"doubleSided":true,
			"extensions":{
				"KHR_materials_specular":{
					"specularFactor":0
				},
				"KHR_materials_ior":{
					"ior":1.4500000476837158
				}
			},
			"name":"Material.030",
			"pbrMetallicRoughness":{
				"baseColorFactor":[
					0.8010008931159973,
					0.4970764219760895,
					0.02874113619327545,
					1
				],
				"metallicFactor":0
			}
		}
	],
	"meshes":[
		{
			"name":"Cube.001",
			"primitives":[
				{
					"attributes":{
						"POSITION":0,
						"NORMAL":1,
						"TEXCOORD_0":2
					},
					"indices":3,
					"material":0
				}
			]
		},
		{
			"name":"Cube.003_Cube.004",
			"primitives":[
				{
					"attributes":{
						"POSITION":4,
						"NORMAL":5,
						"TEXCOORD_0":6
					},
					"indices":7,
					"material":1
				}
			]
		},
		{
			"name":"Cube.013_Cube.008",
			"primitives":[
				{
					"attributes":{
						"POSITION":8,
						"NORMAL":9,
						"TEXCOORD_0":10
					},
					"indices":11,
					"material":2
				}
			]
		}
	],
	"accessors":[
		{
			"bufferView":0,
			"componentType":5126,
			"count":26000,
			"max":[
				0.7906950116157532,
				1.094241976737976,
				-1.4608080387115479
			],
			"min":[
				-0.788329005241394,
				-1.094241976737976,
				-2.716526985168457
			],
			"type":"VEC3"
		},
		{
			"bufferView":1,
			"componentType":5126,
			"count":26000,
			"type":"VEC3"
		},
		{
			"bufferView":2,
			"componentType":5126,
			"count":26000,
			"type":"VEC2"
		},
		{
			"bufferView":3,
			"componentType":5123,
			"count":155136,
			"type":"SCALAR"
		},
		{
			"bufferView":4,
			"componentType":5126,
			"count":10034,
			"max":[
				2.004772901535034,
				1.0961869955062866,
				-1.4589420557022095
			],
			"min":[
				-2.004772901535034,
				-1.0961869955062866,
				-1.6774510145187378
			],
			"type":"VEC3"
		},
		{
			"bufferView":5,
			"componentType":5126,
			"count":10034,
			"type":"VEC3"
		},
		{
			"bufferView":6,
			"componentType":5126,
			"count":10034,
			"type":"VEC2"
		},
		{
			"bufferView":7,
			"componentType":5123,
			"count":59052,
			"type":"SCALAR"
		},
		{
			"bufferView":8,
			"componentType":5126,
			"count":330698,
			"max":[
				1.9130580425262451,
				1.0114250183105469,
				-0.0003319999959785491
			],
			"min":[
				-1.9130580425262451,
				-1.0114250183105469,
				-1.4630839824676514
			],
			"type":"VEC3"
		},
		{
			"bufferView":9,
			"componentType":5126,
			"count":330698,
			"type":"VEC3"
		},
		{
			"bufferView":10,
			"componentType":5126,
			"count":330698,
			"type":"VEC2"
		},
		{
			"bufferView":11,
			"componentType":5125,
			"count":1947408,
			"type":"SCALAR"
		}
	],
	"bufferViews":[
		{
			"buffer":0,
			"byteLength":312000,
			"byteOffset":0,
			"target":34962
		},
		{
			"buffer":0,
			"byteLength":312000,
			"byteOffset":312000,
			"target":34962
		},
		{
			"buffer":0,
			"byteLength":208000,
			"byteOffset":624000,
			"target":34962
		},
		{
			"buffer":0,
			"byteLength":310272,
			"byteOffset":832000,
			"target":34963
		},
		{
			"buffer":0,
			"byteLength":120408,
			"byteOffset":1142272,
			"target":34962
		},
		{
			"buffer":0,
			"byteLength":120408,
			"byteOffset":1262680,
			"target":34962
		},
		{
			"buffer":0,
			"byteLength":80272,
			"byteOffset":1383088,
			"target":34962
		},
		{
			"buffer":0,
			"byteLength":118104,
			"byteOffset":1463360,
			"target":34963
		},
		{
			"buffer":0,
			"byteLength":3968376,
			"byteOffset":1581464,
			"target":34962
		},
		{
			"buffer":0,
			"byteLength":3968376,
			"byteOffset":5549840,
			"target":34962
		},
		{
			"buffer":0,
			"byteLength":2645584,
			"byteOffset":9518216,
			"target":34962
		},
		{
			"buffer":0,
			"byteLength":7789632,
			"byteOffset":12163800,
			"target":34963
		}
	],
	"buffers":[
		{
			"byteLength":19953432,
			"uri":"basket.bin"
		}
	]
}
