{
  "accessors": [
    {
      "bufferView": 2,
      "componentType": 5126,
      "count": 742,
      "max": [
        -39.17746353149414,
        39.04513931274414,
        14.456440925598145
      ],
      "min": [
        -48.68710708618164,
        34.28941345214844,
        4.998892307281494
      ],
      "type": "VEC3"
    },
    {
      "bufferView": 2,
      "byteOffset": 8904,
      "componentType": 5126,
      "count": 742,
      "max": [
        0.996944785118103,
        1.0,
        0.9914836883544922
      ],
      "min": [
        -0.9969448447227478,
        -1.0,
        -0.991483747959137
      ],
      "type": "VEC3"
    },
    {
      "bufferView": 1,
      "componentType": 5126,
      "count": 742,
      "max": [
        1.0000003576278687,
        0.5000000596046448
      ],
      "min": [
        0.0,
        0.0
      ],
      "type": "VEC2"
    },
    {
      "bufferView": 0,
      "componentType": 5125,
      "count": 3600,
      "type": "SCALAR"
    }
  ],
  "asset": {
    "extras": {
      "author": "AdiRajput1 (https://sketchfab.com/AdiRajput1)",
      "license": "CC-BY-4.0 (http://creativecommons.org/licenses/by/4.0/)",
      "source": "https://sketchfab.com/3d-models/bowl-3c34ff69fcd14274aba0b4d230761fed",
      "title": "Bowl"
    },
    "generator": "Sketchfab-14.87.0",
    "version": "2.0"
  },
  "bufferViews": [
    {
      "buffer": 0,
      "byteLength": 14400,
      "name": "floatBufferViews",
      "target": 34963
    },
    {
      "buffer": 0,
      "byteLength": 5936,
      "byteOffset": 14400,
      "byteStride": 8,
      "name": "floatBufferViews",
      "target": 34962
    },
    {
      "buffer": 0,
      "byteLength": 17808,
      "byteOffset": 20336,
      "byteStride": 12,
      "name": "floatBufferViews",
      "target": 34962
    }
  ],
  "buffers": [
    {
      "byteLength": 38144,
      "uri": "scene.bin"
    }
  ],
  "materials": [
    {
      "doubleSided": true,
      "name": "Magenta",
      "pbrMetallicRoughness": {
        "baseColorFactor": [
          1.0,
          0.218,
          0.793943,
          1.0
        ],
        "metallicFactor": 0.0,
        "roughnessFactor": 0.6
      }
    }
  ],
  "meshes": [
    {
      "name": "pSphere1_Magenta_0",
      "primitives": [
        {
          "attributes": {
            "NORMAL": 1,
            "POSITION": 0,
            "TEXCOORD_0": 2
          },
          "indices": 3,
          "material": 0,
          "mode": 4
        }
      ]
    }
  ],
  "nodes": [
    {
      "children": [
        1
      ],
      "matrix": [
        1.0,
        0.0,
        0.0,
        0.0,
        0.0,
        2.220446049250313e-16,
        -1.0,
        0.0,
        0.0,
        1.0,
        2.220446049250313e-16,
        0.0,
        0.0,
        0.0,
        0.0,
        1.0
      ],
      "name": "Sketchfab_model"
    },
    {
      "children": [
        2
      ],
      "matrix": [
        0.009999999776482582,
        0.0,
        0.0,
        0.0,
        0.0,
        0.0,
        0.009999999776482582,
        0.0,
        0.0,
        -0.009999999776482582,
        0.0,
        0.0,
        0.0,
        0.0,
        0.0,
        1.0
      ],
      "name": "04d52626780647c2aae217505da00fde.fbx"
    },
    {
      "children": [
        3
      ],
      "name": "RootNode"
    },
    {
      "children": [
        4
      ],
      "name": "pSphere1"
    },
    {
      "mesh": 0,
      "name": "pSphere1_Magenta_0"
    }
  ],
  "scene": 0,
  "scenes": [
    {
      "name": "Sketchfab_Scene",
      "nodes": [
        0
      ]
    }
  ]
}
