{
  "accessors": [
    {
      "bufferView": 2,
      "componentType": 5126,
      "count": 4144,
      "max": [
        0.14374935626983643,
        0.36000019311904907,
        0.1258598417043686
      ],
      "min": [
        -0.2600935399532318,
        -0.35999998450279236,
        -0.2819158434867859
      ],
      "type": "VEC3"
    },
    {
      "bufferView": 2,
      "byteOffset": 49728,
      "componentType": 5126,
      "count": 4144,
      "max": [
        0.9967712759971619,
        1.0,
        0.9926977157592773
      ],
      "min": [
        -0.9995235204696655,
        -1.0,
        -0.9886307716369629
      ],
      "type": "VEC3"
    },
    {
      "bufferView": 1,
      "componentType": 5126,
      "count": 4144,
      "max": [
        0.0,
        0.0
      ],
      "min": [
        0.0,
        0.0
      ],
      "type": "VEC2"
    },
    {
      "bufferView": 0,
      "componentType": 5125,
      "count": 24828,
      "type": "SCALAR"
    },
    {
      "bufferView": 2,
      "byteOffset": 99456,
      "componentType": 5126,
      "count": 1776,
      "max": [
        0.33599990606307983,
        0.34309932589530945,
        0.09057178348302841
      ],
      "min": [
        -0.3360000550746918,
        -0.3433007299900055,
        -0.10142824053764343
      ],
      "type": "VEC3"
    },
    {
      "bufferView": 2,
      "byteOffset": 120768,
      "componentType": 5126,
      "count": 1776,
      "max": [
        0.9968615770339966,
        1.0,
        0.9968615770339966
      ],
      "min": [
        -0.9968615770339966,
        -1.0,
        -0.9968615770339966
      ],
      "type": "VEC3"
    },
    {
      "bufferView": 1,
      "byteOffset": 33152,
      "componentType": 5126,
      "count": 1776,
      "max": [
        1.0,
        1.0
      ],
      "min": [
        0.0,
        0.021387849003076553
      ],
      "type": "VEC2"
    },
    {
      "bufferView": 0,
      "byteOffset": 99312,
      "componentType": 5125,
      "count": 5544,
      "type": "SCALAR"
    },
    {
      "bufferView": 2,
      "byteOffset": 142080,
      "componentType": 5126,
      "count": 503,
      "max": [
        0.2721107304096222,
        0.30898231267929077,
        0.08571171015501022
      ],
      "min": [
        -0.27211081981658936,
        -0.3091837465763092,
        -0.03746488317847252
      ],
      "type": "VEC3"
    },
    {
      "bufferView": 2,
      "byteOffset": 148116,
      "componentType": 5126,
      "count": 503,
      "max": [
        0.9999953508377075,
        0.8949088454246521,
        1.0
      ],
      "min": [
        -0.9999953508377075,
        -0.8949393630027771,
        -1.0
      ],
      "type": "VEC3"
    },
    {
      "bufferView": 1,
      "byteOffset": 47360,
      "componentType": 5126,
      "count": 503,
      "max": [
        0.8302770256996155,
        0.3304632902145386
      ],
      "min": [
        0.6697229743003845,
        0.1699083000421524
      ],
      "type": "VEC2"
    },
    {
      "bufferView": 0,
      "byteOffset": 121488,
      "componentType": 5125,
      "count": 2688,
      "type": "SCALAR"
    },
    {
      "bufferView": 2,
      "byteOffset": 154152,
      "componentType": 5126,
      "count": 700,
      "max": [
        0.31691157817840576,
        0.339950829744339,
        0.07148344814777374
      ],
      "min": [
        -0.3169117271900177,
        -0.3401522636413574,
        -0.08233992010354996
      ],
      "type": "VEC3"
    },
    {
      "bufferView": 2,
      "byteOffset": 162552,
      "componentType": 5126,
      "count": 700,
      "max": [
        0.3439156711101532,
        1.0,
        0.3439156711101532
      ],
      "min": [
        -0.3439156711101532,
        -1.0,
        -0.3439156711101532
      ],
      "type": "VEC3"
    },
    {
      "bufferView": 1,
      "byteOffset": 51384,
      "componentType": 5126,
      "count": 700,
      "max": [
        0.9302495718002319,
        0.442279189825058
      ],
      "min": [
        0.05772083252668381,
        0.05772073566913605
      ],
      "type": "VEC2"
    },
    {
      "bufferView": 0,
      "byteOffset": 132240,
      "componentType": 5125,
      "count": 2688,
      "type": "SCALAR"
    },
    {
      "bufferView": 2,
      "byteOffset": 170952,
      "componentType": 5126,
      "count": 1797,
      "max": [
        1.1223397254943848,
        0.6928871273994446,
        0.4606389105319977
      ],
      "min": [
        -0.8573733568191528,
        -0.6928878426551819,
        -0.5393611192703247
      ],
      "type": "VEC3"
    },
    {
      "bufferView": 2,
      "byteOffset": 192516,
      "componentType": 5126,
      "count": 1797,
      "max": [
        0.9963224530220032,
        0.9992308020591736,
        1.0
      ],
      "min": [
        -0.9963224530220032,
        -0.9992308616638184,
        -1.0
      ],
      "type": "VEC3"
    },
    {
      "bufferView": 1,
      "byteOffset": 56984,
      "componentType": 5126,
      "count": 1797,
      "max": [
        0.875,
        1.0
      ],
      "min": [
        0.125,
        0.0
      ],
      "type": "VEC2"
    },
    {
      "bufferView": 0,
      "byteOffset": 142992,
      "componentType": 5125,
      "count": 6870,
      "type": "SCALAR"
    }
  ],
  "asset": {
    "extras": {
      "author": "İlhan Fehimovski (https://sketchfab.com/ilhanfehimovski)",
      "license": "CC-BY-4.0 (http://creativecommons.org/licenses/by/4.0/)",
      "source": "https://sketchfab.com/3d-models/cartoon-shopping-cart-f9d4c719cb474a8f938d13116e498c94",
      "title": "Cartoon Shopping Cart"
    },
    "generator": "Sketchfab-14.22.0",
    "version": "2.0"
  },
  "bufferViews": [
    {
      "buffer": 0,
      "byteLength": 170472,
      "name": "floatBufferViews",
      "target": 34963
    },
    {
      "buffer": 0,
      "byteLength": 71360,
      "byteOffset": 170472,
      "byteStride": 8,
      "name": "floatBufferViews",
      "target": 34962
    },
    {
      "buffer": 0,
      "byteLength": 214080,
      "byteOffset": 241832,
      "byteStride": 12,
      "name": "floatBufferViews",
      "target": 34962
    }
  ],
  "buffers": [
    {
      "byteLength": 455912,
      "uri": "scene.bin"
    }
  ],
  "extensionsRequired": [
    "KHR_materials_pbrSpecularGlossiness"
  ],
  "extensionsUsed": [
    "KHR_materials_pbrSpecularGlossiness"
  ],
  "materials": [
    {
      "doubleSided": true,
      "extensions": {
        "KHR_materials_pbrSpecularGlossiness": {
          "diffuseFactor": [
            0.002731650000000002,
            0.23073999999999995,
            0.7681509999999999,
            1.0
          ],
          "glossinessFactor": 0.049431971928952864,
          "specularFactor": [
            0.0,
            0.09063917064303109,
            0.9798125099047921
          ]
        }
      },
      "name": "Material.001"
    },
    {
      "doubleSided": true,
      "extensions": {
        "KHR_materials_pbrSpecularGlossiness": {
          "diffuseFactor": [
            0.0,
            0.0,
            0.0,
            1.0
          ],
          "glossinessFactor": 0.0,
          "specularFactor": [
            0.0,
            0.0,
            0.0
          ]
        }
      },
      "name": "Material.003"
    },
    {
      "doubleSided": true,
      "extensions": {
        "KHR_materials_pbrSpecularGlossiness": {
          "diffuseFactor": [
            0.940665205793594,
            0.536101549750453,
            0.0,
            1.0
          ],
          "glossinessFactor": 0.15311317744644187,
          "specularFactor": [
            0.10286909763063108,
            0.060368829963230244,
            0.0
          ]
        }
      },
      "name": "Material"
    },
    {
      "doubleSided": true,
      "extensions": {
        "KHR_materials_pbrSpecularGlossiness": {
          "diffuseFactor": [
            0.8,
            0.8,
            0.8,
            1.0
          ],
          "glossinessFactor": 0.1788854381999832,
          "specularFactor": [
            0.0,
            0.0,
            0.0
          ]
        }
      },
      "name": "Material.002"
    }
  ],
  "meshes": [
    {
      "name": "Tutacak_Material.001_0",
      "primitives": [
        {
          "attributes": {
            "NORMAL": 1,
            "POSITION": 0,
            "TEXCOORD_0": 2
          },
          "indices": 3,
          "material": 0,
          "mode": 4
        }
      ]
    },
    {
      "name": "Tekerlekler_Material.003_0",
      "primitives": [
        {
          "attributes": {
            "NORMAL": 5,
            "POSITION": 4,
            "TEXCOORD_0": 6
          },
          "indices": 7,
          "material": 1,
          "mode": 4
        }
      ]
    },
    {
      "name": "Tekerlekler_Material_0",
      "primitives": [
        {
          "attributes": {
            "NORMAL": 9,
            "POSITION": 8,
            "TEXCOORD_0": 10
          },
          "indices": 11,
          "material": 2,
          "mode": 4
        }
      ]
    },
    {
      "name": "Tekerlekler_Material.002_0",
      "primitives": [
        {
          "attributes": {
            "NORMAL": 13,
            "POSITION": 12,
            "TEXCOORD_0": 14
          },
          "indices": 15,
          "material": 3,
          "mode": 4
        }
      ]
    },
    {
      "name": "Cube_Material_0",
      "primitives": [
        {
          "attributes": {
            "NORMAL": 17,
            "POSITION": 16,
            "TEXCOORD_0": 18
          },
          "indices": 19,
          "material": 2,
          "mode": 4
        }
      ]
    }
  ],
  "nodes": [
    {
      "children": [
        1
      ],
      "matrix": [
        1.0,
        0.0,
        0.0,
        0.0,
        0.0,
        2.220446049250313e-16,
        -1.0,
        0.0,
        0.0,
        1.0,
        2.220446049250313e-16,
        0.0,
        0.0,
        0.0,
        0.0,
        1.0
      ],
      "name": "Sketchfab_model"
    },
    {
      "children": [
        2
      ],
      "matrix": [
        0.009999999776482582,
        0.0,
        0.0,
        0.0,
        0.0,
        0.0,
        0.009999999776482582,
        0.0,
        0.0,
        -0.009999999776482582,
        0.0,
        0.0,
        0.0,
        0.0,
        0.0,
        1.0
      ],
      "name": "dc62755eaa39422681e2b452da4a33b7.fbx"
    },
    {
      "children": [
        3,
        5,
        9
      ],
      "name": "RootNode"
    },
    {
      "children": [
        4
      ],
      "matrix": [
        100.0,
        0.0,
        0.0,
        0.0,
        0.0,
        -1.629206793918314e-05,
        -99.99999999999868,
        0.0,
        0.0,
        99.99999999999868,
        -1.629206793918314e-05,
        0.0,
        78.57624053955078,
        88.2674331665039,
        -0.0021663547959178686,
        1.0
      ],
      "name": "Tutacak"
    },
    {
      "mesh": 0,
      "name": "Tutacak_Material.001_0"
    },
    {
      "children": [
        6,
        7,
        8
      ],
      "matrix": [
        100.0,
        0.0,
        0.0,
        0.0,
        -0.0,
        -1.629206793918314e-05,
        -99.99999999999868,
        0.0,
        0.0,
        99.99999999999868,
        -1.629206793918314e-05,
        0.0,
        -4.136590480804443,
        11.630537986755371,
        -0.012250283733010292,
        1.0
      ],
      "name": "Tekerlekler"
    },
    {
      "mesh": 1,
      "name": "Tekerlekler_Material.003_0"
    },
    {
      "mesh": 2,
      "name": "Tekerlekler_Material_0"
    },
    {
      "mesh": 3,
      "name": "Tekerlekler_Material.002_0"
    },
    {
      "children": [
        10
      ],
      "matrix": [
        64.95539093017578,
        0.0,
        0.0,
        0.0,
        -0.0,
        -1.0582576420506243e-05,
        -64.95539093017493,
        0.0,
        0.0,
        64.95539093017493,
        -1.0582576420506243e-05,
        0.0,
        -13.248318672180176,
        54.680335998535156,
        -3.761691186809912e-05,
        1.0
      ],
      "name": "Cube"
    },
    {
      "mesh": 4,
      "name": "Cube_Material_0"
    }
  ],
  "scene": 0,
  "scenes": [
    {
      "name": "Sketchfab_Scene",
      "nodes": [
        0
      ]
    }
  ]
}
